<?xml version="1.0" encoding="UTF-8" standalone="no"?>
<!DOCTYPE svg PUBLIC "-//W3C//DTD SVG 1.1//EN"
 "http://www.w3.org/Graphics/SVG/1.1/DTD/svg11.dtd">
<!-- Generated by graphviz version 14.1.1 (20251213.1925)
 -->
<!-- Title: InheritanceTree Pages: 1 -->
<svg width="375pt" height="645pt"
 viewBox="0.00 0.00 375.00 645.00" xmlns="http://www.w3.org/2000/svg" xmlns:xlink="http://www.w3.org/1999/xlink">
<g id="graph0" class="graph" transform="scale(1 1) rotate(0) translate(4 640.5)">
<title>InheritanceTree</title>
<polygon fill="white" stroke="none" points="-4,4 -4,-640.5 371.25,-640.5 371.25,4 -4,4"/>
<text xml:space="preserve" text-anchor="middle" x="183.62" y="-7.2" font-family="Times New Roman,serif" font-size="14.00">simple_postgres &#45; Inheritance Hierarchy</text>
<!-- PG_CONNECTION -->
<g id="node1" class="node">
<title>PG_CONNECTION</title>
<path fill="none" stroke="black" d="M121.38,-132.5C121.38,-132.5 17.62,-132.5 17.62,-132.5 11.62,-132.5 5.62,-126.5 5.62,-120.5 5.62,-120.5 5.62,-108.5 5.62,-108.5 5.62,-102.5 11.62,-96.5 17.62,-96.5 17.62,-96.5 121.38,-96.5 121.38,-96.5 127.38,-96.5 133.38,-102.5 133.38,-108.5 133.38,-108.5 133.38,-120.5 133.38,-120.5 133.38,-126.5 127.38,-132.5 121.38,-132.5"/>
<text xml:space="preserve" text-anchor="middle" x="69.5" y="-109.45" font-family="Times New Roman,serif" font-size="14.00">PG_CONNECTION</text>
</g>
<!-- PG_EXTERNALS -->
<g id="node2" class="node">
<title>PG_EXTERNALS</title>
<path fill="none" stroke="black" d="M354.5,-96.5C354.5,-96.5 259.75,-96.5 259.75,-96.5 253.75,-96.5 247.75,-90.5 247.75,-84.5 247.75,-84.5 247.75,-72.5 247.75,-72.5 247.75,-66.5 253.75,-60.5 259.75,-60.5 259.75,-60.5 354.5,-60.5 354.5,-60.5 360.5,-60.5 366.5,-66.5 366.5,-72.5 366.5,-72.5 366.5,-84.5 366.5,-84.5 366.5,-90.5 360.5,-96.5 354.5,-96.5"/>
<text xml:space="preserve" text-anchor="middle" x="307.12" y="-73.45" font-family="Times New Roman,serif" font-size="14.00">PG_EXTERNALS</text>
</g>
<!-- PG_CONNECTION&#45;&gt;PG_EXTERNALS -->
<g id="edge1" class="edge">
<title>PG_CONNECTION&#45;&gt;PG_EXTERNALS</title>
<path fill="none" stroke="black" d="M124.25,-96.01C124.25,-89.84 124.25,-84.5 124.25,-84.5 124.25,-84.5 235.98,-84.5 235.98,-84.5"/>
<polygon fill="none" stroke="black" points="235.98,-88 245.98,-84.5 235.98,-81 235.98,-88"/>
</g>
<!-- PG_ERROR -->
<g id="node3" class="node">
<title>PG_ERROR</title>
<path fill="none" stroke="black" d="M100,-204.5C100,-204.5 39,-204.5 39,-204.5 33,-204.5 27,-198.5 27,-192.5 27,-192.5 27,-180.5 27,-180.5 27,-174.5 33,-168.5 39,-168.5 39,-168.5 100,-168.5 100,-168.5 106,-168.5 112,-174.5 112,-180.5 112,-180.5 112,-192.5 112,-192.5 112,-198.5 106,-204.5 100,-204.5"/>
<text xml:space="preserve" text-anchor="middle" x="69.5" y="-181.45" font-family="Times New Roman,serif" font-size="14.00">PG_ERROR</text>
</g>
<!-- PG_RESULT -->
<g id="node4" class="node">
<title>PG_RESULT</title>
<path fill="none" stroke="black" d="M102.62,-60.5C102.62,-60.5 36.38,-60.5 36.38,-60.5 30.38,-60.5 24.38,-54.5 24.38,-48.5 24.38,-48.5 24.38,-36.5 24.38,-36.5 24.38,-30.5 30.38,-24.5 36.38,-24.5 36.38,-24.5 102.62,-24.5 102.62,-24.5 108.62,-24.5 114.62,-30.5 114.62,-36.5 114.62,-36.5 114.62,-48.5 114.62,-48.5 114.62,-54.5 108.62,-60.5 102.62,-60.5"/>
<text xml:space="preserve" text-anchor="middle" x="69.5" y="-37.45" font-family="Times New Roman,serif" font-size="14.00">PG_RESULT</text>
</g>
<!-- PG_RESULT&#45;&gt;PG_EXTERNALS -->
<g id="edge2" class="edge">
<title>PG_RESULT&#45;&gt;PG_EXTERNALS</title>
<path fill="none" stroke="black" d="M69.25,-60.99C69.25,-67.16 69.25,-72.5 69.25,-72.5 69.25,-72.5 235.89,-72.5 235.89,-72.5"/>
<polygon fill="none" stroke="black" points="235.89,-76 245.89,-72.5 235.89,-69 235.89,-76"/>
</g>
<!-- PG_ROW -->
<g id="node5" class="node">
<title>PG_ROW</title>
<path fill="none" stroke="black" d="M93.62,-276.5C93.62,-276.5 45.38,-276.5 45.38,-276.5 39.38,-276.5 33.38,-270.5 33.38,-264.5 33.38,-264.5 33.38,-252.5 33.38,-252.5 33.38,-246.5 39.38,-240.5 45.38,-240.5 45.38,-240.5 93.62,-240.5 93.62,-240.5 99.62,-240.5 105.62,-246.5 105.62,-252.5 105.62,-252.5 105.62,-264.5 105.62,-264.5 105.62,-270.5 99.62,-276.5 93.62,-276.5"/>
<text xml:space="preserve" text-anchor="middle" x="69.5" y="-253.45" font-family="Times New Roman,serif" font-size="14.00">PG_ROW</text>
</g>
<!-- PG_TYPE_OIDS -->
<g id="node6" class="node">
<title>PG_TYPE_OIDS</title>
<path fill="none" stroke="black" d="M113.5,-348.5C113.5,-348.5 25.5,-348.5 25.5,-348.5 19.5,-348.5 13.5,-342.5 13.5,-336.5 13.5,-336.5 13.5,-324.5 13.5,-324.5 13.5,-318.5 19.5,-312.5 25.5,-312.5 25.5,-312.5 113.5,-312.5 113.5,-312.5 119.5,-312.5 125.5,-318.5 125.5,-324.5 125.5,-324.5 125.5,-336.5 125.5,-336.5 125.5,-342.5 119.5,-348.5 113.5,-348.5"/>
<text xml:space="preserve" text-anchor="middle" x="69.5" y="-325.45" font-family="Times New Roman,serif" font-size="14.00">PG_TYPE_OIDS</text>
</g>
<!-- SIMPLE_POSTGRES -->
<g id="node7" class="node">
<title>SIMPLE_POSTGRES</title>
<path fill="none" stroke="black" d="M127,-420.5C127,-420.5 12,-420.5 12,-420.5 6,-420.5 0,-414.5 0,-408.5 0,-408.5 0,-396.5 0,-396.5 0,-390.5 6,-384.5 12,-384.5 12,-384.5 127,-384.5 127,-384.5 133,-384.5 139,-390.5 139,-396.5 139,-396.5 139,-408.5 139,-408.5 139,-414.5 133,-420.5 127,-420.5"/>
<text xml:space="preserve" text-anchor="middle" x="69.5" y="-397.45" font-family="Times New Roman,serif" font-size="14.00">SIMPLE_POSTGRES</text>
</g>
<!-- DEBUG_TEST -->
<g id="node8" class="node">
<title>DEBUG_TEST</title>
<path fill="none" stroke="black" d="M108.25,-492.5C108.25,-492.5 30.75,-492.5 30.75,-492.5 24.75,-492.5 18.75,-486.5 18.75,-480.5 18.75,-480.5 18.75,-468.5 18.75,-468.5 18.75,-462.5 24.75,-456.5 30.75,-456.5 30.75,-456.5 108.25,-456.5 108.25,-456.5 114.25,-456.5 120.25,-462.5 120.25,-468.5 120.25,-468.5 120.25,-480.5 120.25,-480.5 120.25,-486.5 114.25,-492.5 108.25,-492.5"/>
<text xml:space="preserve" text-anchor="middle" x="69.5" y="-469.45" font-family="Times New Roman,serif" font-size="14.00">DEBUG_TEST</text>
</g>
<!-- LIB_TESTS -->
<g id="node9" class="node">
<title>LIB_TESTS</title>
<path fill="none" stroke="black" d="M99.62,-564.5C99.62,-564.5 39.38,-564.5 39.38,-564.5 33.38,-564.5 27.38,-558.5 27.38,-552.5 27.38,-552.5 27.38,-540.5 27.38,-540.5 27.38,-534.5 33.38,-528.5 39.38,-528.5 39.38,-528.5 99.62,-528.5 99.62,-528.5 105.62,-528.5 111.62,-534.5 111.62,-540.5 111.62,-540.5 111.62,-552.5 111.62,-552.5 111.62,-558.5 105.62,-564.5 99.62,-564.5"/>
<text xml:space="preserve" text-anchor="middle" x="69.5" y="-541.45" font-family="Times New Roman,serif" font-size="14.00">LIB_TESTS</text>
</g>
<!-- TEST_SET_BASE -->
<g id="node10" class="node">
<title>TEST_SET_BASE</title>
<path fill="none" stroke="black" d="M355.25,-564.5C355.25,-564.5 259,-564.5 259,-564.5 253,-564.5 247,-558.5 247,-552.5 247,-552.5 247,-540.5 247,-540.5 247,-534.5 253,-528.5 259,-528.5 259,-528.5 355.25,-528.5 355.25,-528.5 361.25,-528.5 367.25,-534.5 367.25,-540.5 367.25,-540.5 367.25,-552.5 367.25,-552.5 367.25,-558.5 361.25,-564.5 355.25,-564.5"/>
<text xml:space="preserve" text-anchor="middle" x="307.12" y="-541.45" font-family="Times New Roman,serif" font-size="14.00">TEST_SET_BASE</text>
</g>
<!-- LIB_TESTS&#45;&gt;TEST_SET_BASE -->
<g id="edge3" class="edge">
<title>LIB_TESTS&#45;&gt;TEST_SET_BASE</title>
<path fill="none" stroke="black" d="M111.98,-546.5C111.98,-546.5 235.19,-546.5 235.19,-546.5"/>
<polygon fill="none" stroke="black" points="235.19,-550 245.19,-546.5 235.19,-543 235.19,-550"/>
</g>
<!-- TEST_APP -->
<g id="node11" class="node">
<title>TEST_APP</title>
<path fill="none" stroke="black" d="M97.38,-636.5C97.38,-636.5 41.62,-636.5 41.62,-636.5 35.62,-636.5 29.62,-630.5 29.62,-624.5 29.62,-624.5 29.62,-612.5 29.62,-612.5 29.62,-606.5 35.62,-600.5 41.62,-600.5 41.62,-600.5 97.38,-600.5 97.38,-600.5 103.38,-600.5 109.38,-606.5 109.38,-612.5 109.38,-612.5 109.38,-624.5 109.38,-624.5 109.38,-630.5 103.38,-636.5 97.38,-636.5"/>
<text xml:space="preserve" text-anchor="middle" x="69.5" y="-613.45" font-family="Times New Roman,serif" font-size="14.00">TEST_APP</text>
</g>
</g>
</svg>
