<?xml version="1.0" encoding="UTF-8" standalone="no"?>
<!DOCTYPE svg PUBLIC "-//W3C//DTD SVG 1.1//EN"
 "http://www.w3.org/Graphics/SVG/1.1/DTD/svg11.dtd">
<!-- Generated by graphviz version 14.1.1 (20251213.1925)
 -->
<!-- Title: Dependencies Pages: 1 -->
<svg width="352pt" height="285pt"
 viewBox="0.00 0.00 352.00 285.00" xmlns="http://www.w3.org/2000/svg" xmlns:xlink="http://www.w3.org/1999/xlink">
<g id="graph0" class="graph" transform="scale(1 1) rotate(0) translate(4 280.5)">
<title>Dependencies</title>
<polygon fill="white" stroke="none" points="-4,4 -4,-280.5 348,-280.5 348,4 -4,4"/>
<text xml:space="preserve" text-anchor="middle" x="172" y="-7.2" font-family="Times New Roman,serif" font-size="14.00">simple_postgres &#45; Dependencies</text>
<!-- simple_postgres -->
<g id="node1" class="node">
<title>simple_postgres</title>
<polygon fill="lightblue" stroke="black" points="104.5,-168.5 0,-168.5 0,-132.5 104.5,-132.5 104.5,-168.5"/>
<text xml:space="preserve" text-anchor="middle" x="52.25" y="-145.45" font-family="Times New Roman,serif" font-size="14.00">simple_postgres</text>
</g>
<!-- simple_testing -->
<g id="node2" class="node">
<title>simple_testing</title>
<polygon fill="lightblue" stroke="black" points="344,-276.5 248.5,-276.5 248.5,-240.5 344,-240.5 344,-276.5"/>
<text xml:space="preserve" text-anchor="middle" x="296.25" y="-253.45" font-family="Times New Roman,serif" font-size="14.00">simple_testing</text>
</g>
<!-- simple_postgres&#45;&gt;simple_testing -->
<g id="edge1" class="edge">
<title>simple_postgres&#45;&gt;simple_testing</title>
<path fill="none" stroke="black" stroke-dasharray="5,2" d="M104.96,-159.5C166.21,-159.5 259,-159.5 259,-159.5 259,-159.5 259,-228.83 259,-228.83"/>
<polygon fill="black" stroke="black" points="255.5,-228.83 259,-238.83 262.5,-228.83 255.5,-228.83"/>
</g>
<!-- base -->
<g id="node3" class="node">
<title>base</title>
<polygon fill="lightgray" stroke="black" points="323.25,-204.5 269.25,-204.5 269.25,-168.5 323.25,-168.5 323.25,-204.5"/>
<text xml:space="preserve" text-anchor="middle" x="296.25" y="-181.45" font-family="Times New Roman,serif" font-size="14.00">base</text>
</g>
<!-- simple_postgres&#45;&gt;base -->
<g id="edge2" class="edge">
<title>simple_postgres&#45;&gt;base</title>
<path fill="none" stroke="black" stroke-dasharray="5,2" d="M104.93,-150.5C174.14,-150.5 287,-150.5 287,-150.5 287,-150.5 287,-156.56 287,-156.56"/>
<polygon fill="black" stroke="black" points="283.5,-156.56 287,-166.56 290.5,-156.56 283.5,-156.56"/>
</g>
<!-- time -->
<g id="node4" class="node">
<title>time</title>
<polygon fill="lightgray" stroke="black" points="323.25,-132.5 269.25,-132.5 269.25,-96.5 323.25,-96.5 323.25,-132.5"/>
<text xml:space="preserve" text-anchor="middle" x="296.25" y="-109.45" font-family="Times New Roman,serif" font-size="14.00">time</text>
</g>
<!-- simple_postgres&#45;&gt;time -->
<g id="edge3" class="edge">
<title>simple_postgres&#45;&gt;time</title>
<path fill="none" stroke="black" stroke-dasharray="5,2" d="M104.93,-141.5C179,-141.5 305,-141.5 305,-141.5 305,-141.5 305,-140.65 305,-140.65"/>
<polygon fill="black" stroke="black" points="308.5,-144.47 305,-134.47 301.5,-144.47 308.5,-144.47"/>
</g>
<!-- testing -->
<g id="node5" class="node">
<title>testing</title>
<polygon fill="lightgray" stroke="black" points="323.25,-60.5 269.25,-60.5 269.25,-24.5 323.25,-24.5 323.25,-60.5"/>
<text xml:space="preserve" text-anchor="middle" x="296.25" y="-37.45" font-family="Times New Roman,serif" font-size="14.00">testing</text>
</g>
<!-- simple_postgres&#45;&gt;testing -->
<g id="edge4" class="edge">
<title>simple_postgres&#45;&gt;testing</title>
<path fill="none" stroke="black" stroke-dasharray="5,2" d="M52,-132.18C52,-101.37 52,-42.5 52,-42.5 52,-42.5 257.66,-42.5 257.66,-42.5"/>
<polygon fill="black" stroke="black" points="257.66,-46 267.66,-42.5 257.66,-39 257.66,-46"/>
</g>
</g>
</svg>
